<svg width="107" height="64" viewBox="0 0 107 64" fill="none" xmlns="http://www.w3.org/2000/svg">
<g clip-path="url(#clip0_977_328021)">
<path d="M69.1029 29.599H66.4544V22.101C64.9912 24.7053 63.6162 27.1523 62.2471 29.589H60.6932C59.1002 27.4465 57.9938 24.8671 56.5183 22.5209C56.4903 22.5393 56.4663 22.5639 56.4488 22.5927C56.4312 22.6216 56.4204 22.654 56.4169 22.6876C56.4149 24.97 56.4152 27.2524 56.4152 29.5785H53.7719V18.0541C53.7719 17.966 53.771 17.878 53.7719 17.79C53.7865 16.5729 54.1281 16.2302 55.4569 16.1387C55.9771 16.6082 56.402 17.1731 56.7092 17.8029C57.5414 19.404 58.5421 20.9168 59.4439 22.4831C60.0936 23.6111 60.6932 24.7678 61.3689 26.0103C62.3341 24.274 63.1965 22.542 64.2287 20.9181C65.2504 19.3109 65.9401 17.4769 67.3682 16.1437H68.1812C68.4846 16.4487 68.7938 16.76 69.1032 17.0714C69.1029 21.2084 69.1029 25.3452 69.1029 29.599Z" fill="#3A3A3C"/>
<path d="M0.377392 17.0672L1.03821 16.4063H1.53386C4.17158 16.4063 6.80929 16.4061 9.44702 16.4058C10.5231 16.4051 11.4746 16.77 11.9811 17.7217C12.4165 18.5397 12.813 19.4136 12.3698 20.4531C12.1355 21.0024 12.1208 21.6484 11.7618 22.1838C11.74 22.2795 11.7418 22.3791 11.7673 22.4739C11.7928 22.5687 11.8411 22.6558 11.908 22.7276C12.6914 22.9409 12.7246 23.7112 13.0904 24.2285C13.3883 24.7249 13.5518 25.2904 13.5647 25.8693C13.7045 27.2847 13.0568 28.4335 11.9396 29.2529C11.5101 29.5063 11.0161 29.6293 10.5179 29.6074C7.61671 29.6387 4.71503 29.6325 1.8136 29.6179C0.732449 29.6124 0.378941 29.2327 0.378263 28.1661C0.375963 24.4733 0.377392 20.7805 0.377392 17.0672ZM10.9506 26.9575C10.9506 26.5324 11.0357 26.1924 10.9332 25.924C10.7096 25.3384 10.6499 24.5899 9.84473 24.4258C9.5527 24.3684 9.25576 24.3397 8.95814 24.34C7.16874 24.3324 5.37928 24.3363 3.54938 24.3363C3.54938 23.8129 3.54336 23.3791 3.55111 22.9455C3.55862 22.525 3.58027 22.1049 3.59541 21.693C5.05443 21.693 6.41649 21.6996 7.77841 21.6876C8.07333 21.7131 8.36969 21.6584 8.63604 21.5292C9.69987 20.9509 9.95961 20.4763 9.78345 19.079H2.80557V26.9575H10.9506Z" fill="#3A3A3C"/>
<path d="M103.576 29.5998C102.226 28.2492 100.84 26.8975 99.4932 25.5072C98.103 24.0717 96.752 22.5981 95.382 21.1426C95.2183 20.9686 95.0447 20.8039 94.7809 20.5401V29.5594H92.4023V16.7734C92.7083 16.5596 92.8582 16.0629 93.4205 16.132C93.9237 16.1848 94.3907 16.4197 94.7329 16.7924C96.1026 18.2481 97.4542 19.7211 98.8438 21.1574C100.144 22.5015 101.484 23.8072 102.895 25.218V16.4514C103.354 16.4355 103.777 16.415 104.2 16.4079C104.633 16.4005 105.067 16.4063 105.582 16.4063V18.1374C105.582 21.3046 105.588 24.4719 105.573 27.6391C105.592 27.9762 105.543 28.3136 105.429 28.6313C105.068 29.5317 104.455 29.7541 103.576 29.5998Z" fill="#3A3A3C"/>
<path d="M45.2678 16.4292H47.9119V28.7365C47.6673 29.0447 47.3506 29.2883 46.9899 29.4458C46.6293 29.6033 46.2357 29.67 45.8432 29.6401C44.3063 29.575 42.7648 29.6223 41.2253 29.6223C40.9611 29.6223 40.5692 29.7331 40.4561 29.6024C40.0291 29.1091 39.4487 29.5349 38.9958 29.2661C38.5425 28.9966 37.9826 28.8764 37.5837 28.5507C36.0074 27.2625 34.6777 25.8302 34.7279 23.5689C34.7805 21.2038 34.7396 18.8365 34.7396 16.4382H37.3829V19.6861C37.3829 20.9178 37.4349 22.1522 37.3698 23.3804C37.2906 24.8701 38.0717 25.7751 39.2585 26.4466C39.8707 26.808 40.5701 26.9945 41.2811 26.9859C42.5944 26.9609 43.9089 26.9789 45.2678 26.9789V16.4292Z" fill="#3A3A3C"/>
<path d="M86.7881 26.9795V29.6227H82.3075C81.0748 29.6227 79.8424 29.6168 78.6098 29.6244C78.0399 29.6429 77.473 29.535 76.9493 29.3088C76.4259 29.0826 75.9586 28.7436 75.5813 28.3161C75.361 28.0904 75.1877 27.8229 75.0723 27.5293C74.9568 27.2357 74.9013 26.9219 74.9089 26.6065C74.9299 23.4372 74.9182 20.2677 74.9182 17.0838C75.2289 16.8267 75.3981 16.3962 75.9338 16.3984C79.5356 16.4134 83.1374 16.4062 86.7758 16.4062V19.026H77.5615C77.5615 21.4845 77.5545 23.8529 77.5665 26.2212C77.5694 26.8095 77.7854 26.9758 78.4882 26.9772C81.2174 26.9828 83.9466 26.9795 86.7881 26.9795Z" fill="#3A3A3C"/>
<path d="M18.6172 16.4331H21.2289V26.9552H30.745V29.5717H19.489L18.6172 28.6688V16.4331Z" fill="#3A3A3C"/>
<path d="M74.1055 36.464C74.1529 36.2828 74.1497 36.0508 74.2338 36.0125C74.7058 35.772 75.2029 35.5843 75.7161 35.454C76.5446 35.2883 77.3926 35.2228 78.3377 35.1013C78.5978 34.6486 78.907 34.1109 79.248 33.5176C79.3991 33.7091 79.5052 33.8432 79.6154 33.9826C79.4541 34.2064 79.2682 34.4651 79.0143 34.8184C80.3378 35.1144 81.4845 34.4601 82.6777 34.6337C83.8552 34.8052 85.0463 34.8803 86.2588 35.0005V35.4385C85.5548 35.4385 84.8596 35.4701 84.1687 35.4283C83.6214 35.3953 83.0845 35.5081 82.5129 35.2918C82.1126 35.1404 81.5672 35.4043 81.0839 35.4312C80.5131 35.4628 79.9392 35.4385 79.367 35.4385H78.7352C78.5101 35.9122 78.3015 36.3544 78.0905 36.7951C76.5878 39.8691 75.3025 43.0449 74.2441 46.2986C74.1567 46.5754 74.1944 46.8907 74.1161 47.1721C73.9945 47.4834 73.8492 47.785 73.6815 48.074C73.4372 46.6049 73.8887 45.5084 74.2771 44.4254C74.8472 42.8365 75.5109 41.2812 76.1687 39.6263C74.8052 40.1047 73.6572 41.1696 72.0792 40.9677C71.9368 40.5541 71.7913 40.1304 71.654 39.7303C70.7825 40.1301 69.9146 40.5632 69.0168 40.9209C68.6872 41.0334 68.3321 41.0483 67.994 40.9639C67.8821 40.9162 67.7827 40.8435 67.7035 40.7511C67.6246 40.6588 67.5679 40.5492 67.5384 40.4311C67.4948 40.043 67.4878 39.6517 67.5173 39.2622L66.8183 38.9027C66.3101 39.5138 65.773 40.1596 65.1821 40.87C64.8989 40.4831 64.6961 40.2061 64.488 39.9217C64.2934 40.1164 64.1376 40.2721 63.8877 40.5217C63.7145 40.121 63.5607 39.7654 63.407 39.4103C62.6788 39.8434 61.9391 40.2879 61.1948 40.7239C60.5378 41.1091 59.9604 41.5384 60.1287 42.4695C59.1366 43.1653 58.6064 44.6215 57.0105 44.4014C57.0158 43.6933 57.0158 43.6933 59.0737 41.6354C58.1991 41.363 57.2864 41.368 56.4708 40.9934C55.6662 40.6237 54.8293 40.3119 54.3038 39.4509C54.1732 38.5327 54.6855 37.7992 55.2115 37.0005C56.277 35.3827 57.927 34.4437 59.3224 33.2125C59.7508 32.8344 60.3151 32.6073 60.8061 32.3201C61.2173 32.0792 61.7991 31.9854 62.3027 31.8098C62.8258 31.6274 63.0765 32.1783 63.5286 32.2318V33.7146C63.8033 33.9417 63.8153 33.6179 63.9556 33.5948L64.3328 33.9727L64.0882 34.2421L63.0929 35.2375C62.8053 35.8231 62.5329 36.4166 62.2237 36.9903C62.0265 37.2808 61.8082 37.5561 61.5706 37.8141C61.4996 37.3837 61.3938 37.1691 61.4508 37.0148C61.7044 36.3287 61.8713 35.5478 62.3208 35.0118C62.604 34.6878 62.8114 34.3052 62.9283 33.8914C63.0455 33.4776 63.0692 33.0428 62.9979 32.6187C62.0405 32.2742 61.1808 32.6693 60.4268 33.1737C58.908 34.1901 57.36 35.1933 56.1741 36.6194C55.753 37.1347 55.3784 37.6864 55.0552 38.268C54.6791 38.9337 54.7705 39.1122 55.1639 39.6234C55.6966 40.3154 56.4965 40.5179 57.2335 40.6848C57.9179 40.8397 58.6111 41.1813 59.3636 41.001C59.4498 40.9805 59.574 41.1187 59.7193 41.207C60.7322 40.3206 61.8558 39.569 63.0622 38.9717C63.3909 38.8066 63.9216 38.9474 63.9111 38.3407C64.7122 38.6701 63.6911 39.2826 64.1911 39.6429C64.4681 39.216 64.7455 38.789 65 38.3965C65.9562 38.7534 64.8238 39.4378 65.287 40.0076C65.7677 39.334 66.2148 38.7078 66.7169 38.0044C67.0658 38.315 67.4069 38.6186 67.7321 38.908C68.1752 38.6353 68.6036 38.3399 69.0159 38.0225C69.5443 37.5719 69.8579 37.8416 70.2179 38.3252C69.8336 38.8998 69.3733 39.3238 68.6328 39.4109C68.072 39.4764 67.9779 39.8753 68.0933 40.4434C68.6804 40.5354 69.1922 40.2426 69.6895 39.9948C70.7933 39.4448 72.007 39.0927 72.8992 38.1502C73.1566 37.943 73.4793 37.8343 73.8092 37.8433C74.0129 37.8384 74.2224 38.0806 74.4793 38.244C74.0871 38.9085 73.6017 39.3036 72.8776 39.408C72.3331 39.4863 72.2022 39.8563 72.308 40.4212C72.9074 40.5939 73.3805 40.1649 73.9121 40.015C74.5027 39.8487 74.9951 39.474 75.6123 39.3186C75.8964 39.2437 76.1576 39.0997 76.373 38.8995C76.5881 38.6993 76.7506 38.4494 76.8461 38.1712C77.1565 37.346 77.6478 36.5882 78.1019 35.7234C76.6992 35.5841 75.5004 36.2831 74.1055 36.464Z" fill="#3A3A3C"/>
<path d="M33.1937 36.2993C33.6926 35.8554 34.1295 35.5202 34.6821 35.0964C34.8747 35.3232 35.0556 35.5596 35.2242 35.8048C35.2487 35.8591 35.2596 35.9188 35.2555 35.9781C35.2511 36.0377 35.2321 36.0953 35.2002 36.1455C35.152 36.1815 35.0959 36.2055 35.0366 36.2154C34.977 36.225 34.9162 36.2206 34.8589 36.2022C34.6879 36.1017 34.5293 35.9813 34.3867 35.8437C33.924 36.4647 33.5061 37.0258 33.1216 37.5419C33.334 38.1544 34.1646 37.4206 34.2391 38.2818C33.8095 38.3166 33.3977 38.3499 32.8997 38.3902C32.5587 39.0384 32.0701 39.6918 31.862 40.4251C31.5256 41.6089 30.8684 42.6841 30.6764 43.8954C30.5881 44.4515 29.9902 44.9793 30.4821 45.6158C30.5002 45.6392 30.2696 45.8548 30.1568 45.9787C29.5945 45.7853 29.7047 45.313 29.7275 44.9051C29.7442 44.6055 31.7252 39.2824 31.9064 38.939C31.9456 38.8648 32.0277 38.8128 32.1545 38.6857C31.6458 38.5363 31.1788 38.399 30.6431 38.2418C29.6781 40.8365 28.4685 43.2574 28.0449 45.9609C27.9546 45.9361 27.8706 45.8925 27.7985 45.8326C27.7265 45.7727 27.6682 45.6982 27.6274 45.614C27.5866 45.5296 27.5644 45.4375 27.5622 45.344C27.56 45.2502 27.5779 45.1573 27.6147 45.0714C27.9216 44.0135 28.1327 42.9284 28.6316 41.9245C28.9709 41.2419 29.1837 40.4961 29.5139 39.617C29.1334 39.7146 28.8096 39.7065 28.6267 39.8628C28.2196 40.2111 28.1327 39.5571 27.8695 39.6544C27.3757 40.2149 26.9044 40.7497 26.3573 41.3705L25.3851 40.5247C24.4388 41.3538 23.4968 42.2258 22.5035 43.035C21.6516 43.7291 20.7676 44.422 19.5847 44.1365C18.0467 43.1388 18.124 41.7293 18.6764 40.2903C19.2489 38.7415 20.0514 37.2879 21.0568 35.9781C21.8752 34.9687 22.7682 34.0219 23.7282 33.146C24.3155 32.5902 25.0997 32.2372 25.8144 31.826C26.0136 31.7538 26.2259 31.7249 26.4372 31.7412C26.6103 31.731 26.8299 31.684 26.9497 31.7672C27.1875 31.9598 27.408 32.1726 27.6086 32.4034V33.8936L28.0314 33.5981L28.3396 33.9871C28.3237 34.0075 28.2911 34.0961 28.2372 34.1119C27.4613 34.3398 27.1252 35.0017 26.8252 35.6394C26.4463 36.4445 26.0872 37.2429 25.3093 37.8326C25.0002 36.9498 25.5963 36.3346 25.9363 35.6689C26.1522 35.3092 26.3989 34.969 26.6737 34.6522C27.0868 34.1072 27.1282 33.4783 27.0704 32.8362C27.0353 32.4461 26.5493 32.0907 26.233 32.2833C25.5653 32.6895 24.762 32.8549 24.1941 33.4304C23.066 34.5736 21.8094 35.6148 20.9405 36.9761C20.1508 38.2131 19.3834 39.4703 19.1108 40.98C18.9979 41.6054 18.7869 42.1174 19.1031 42.77C19.242 43.0567 19.2461 43.5438 19.5576 43.5979C19.9772 43.6899 20.4152 43.6458 20.8078 43.4716C21.7083 43.026 22.5336 42.4424 23.254 41.7422C24.5188 40.5817 25.6975 39.3277 26.9541 38.0708C27.2215 38.3785 27.4852 38.6822 27.8691 39.124C28.456 39.1325 29.264 39.29 29.9674 38.7412C29.9122 38.7023 29.8438 38.66 29.7819 38.6097C29.6708 38.5197 29.5633 38.4247 29.4543 38.3315C29.5291 38.2485 29.6194 38.0834 29.6761 38.0942C30.4163 38.2356 30.5589 37.5781 30.7121 37.1806C30.8623 36.7455 31.1001 36.3457 31.4114 36.0061C31.7226 35.6669 32.1005 35.3951 32.521 35.2078C32.7384 35.5184 33.2706 35.6733 33.1937 36.2993C32.8717 36.1765 32.6081 36.0719 32.2945 35.9471C31.6855 36.3785 31.3789 37.0474 30.9724 37.704C31.4841 37.8122 31.9032 37.9004 32.3898 38.0033C32.6572 37.4764 32.9328 36.9334 33.1937 36.2993Z" fill="#3A3A3C"/>
<path d="M78.1133 24.2915V21.7373H85.7115C85.7249 22.105 85.7465 22.5255 85.7541 22.9462C85.7617 23.3801 85.7556 23.8143 85.7556 24.2915L78.1133 24.2915Z" fill="#3A3A3C"/>
<path d="M48.1381 40.9018C46.9314 43.7661 47.02 43.2055 47.1076 42.6512C46.3691 42.9227 45.8557 42.7827 45.2908 42.1558C44.9503 41.778 44.9579 41.2765 45.3136 40.6514C45.8598 39.6908 47.465 38.0698 48.6042 37.281C48.8248 37.0963 49.0247 36.8882 49.2003 36.6603C48.8812 36.423 48.5782 36.165 48.2929 35.8876C48.096 35.6749 48.1956 34.9998 48.444 34.8347C48.8432 34.5498 49.2766 34.316 49.734 34.1386C49.9905 34.0492 50.0613 33.9854 50.0855 33.7268C50.1238 33.4854 50.2124 33.2546 50.3453 33.0494C50.4114 32.936 50.5733 32.8782 50.6919 32.7952C50.741 32.9357 50.8547 33.0909 50.8263 33.2136C50.7489 33.4729 50.6507 33.7254 50.5329 33.9691C50.9856 34.1345 51.3281 34.2599 51.6665 34.3835C51.3579 35.2365 50.8614 34.4028 50.3471 34.8724C50.2918 35.0226 50.144 35.4259 49.9718 35.8955C50.3436 35.9499 50.5873 35.9852 50.9377 36.0364C50.8114 36.2664 50.76 36.4893 50.6209 36.5867C50.3576 36.7708 50.0303 36.8614 49.7576 37.0347C49.6483 37.1042 49.6124 37.2889 49.5431 37.4213C49.6343 37.4578 49.722 37.5025 49.8053 37.5551C50.234 37.8798 50.8582 37.769 51.2255 38.2878C51.7273 38.9967 51.8296 39.561 51.253 40.1794C50.6525 40.8232 50.1156 41.5725 49.16 41.7987C48.857 41.8703 48.6197 42.2005 48.3157 42.2952C47.8847 42.4297 47.7351 42.6459 47.667 43.098C47.5968 43.5659 47.3221 44.0028 47.1366 44.4534C47.0387 44.411 46.9408 44.3686 48.1381 40.9018C48.9663 38.9257 48.5107 40.3399 48.027 41.8408C48.7371 41.607 49.3906 41.228 49.9461 40.7277C50.5017 40.2276 50.947 39.6172 51.2536 38.9354C51.0823 38.8267 50.9041 38.7016 50.715 38.5961C50.3862 38.4377 50.0662 38.2621 49.7562 38.0698C49.6197 37.973 49.5741 37.7483 48.1381 40.9018ZM45.5737 41.9366C45.716 41.9849 45.9308 41.9895 46.003 42.0933C46.4182 42.6912 46.7298 41.8995 47.1316 42.031C47.5308 42.1614 47.4504 41.6947 47.5267 41.522C47.804 40.8928 48.0004 40.2276 48.2202 39.5736C48.4084 39.0131 48.5869 38.4494 48.7696 37.8871C47.9142 38.5075 47.1339 39.2247 46.4437 40.0248C46.0065 40.5465 45.5675 41.1347 45.5737 41.9366Z" fill="#3A3A3C"/>
<path d="M40.588 38.402C40.1938 38.8959 39.7621 39.2989 39.0798 39.4161C38.5298 39.5102 38.5374 39.5622 38.4354 40.3697C39.0549 40.6832 39.54 40.197 40.0403 40.0225C40.8799 39.73 41.6646 39.2834 42.4893 38.9421C42.6924 38.8579 42.9601 38.9295 43.4361 38.9295C42.1447 39.7077 40.7937 40.3822 39.3957 40.9468C39.1867 41.0021 38.969 41.0155 38.7548 40.9872C38.1171 40.9802 37.9915 40.8524 37.9143 40.1493C37.9003 40.0225 37.9006 39.8942 37.8918 39.72C36.997 40.1102 36.1363 40.512 35.2535 40.8562C34.9393 40.9845 34.5951 41.0211 34.2608 40.9612C34.1313 40.9173 34.0135 40.8437 33.9171 40.7467C33.8206 40.6493 33.7479 40.531 33.7049 40.4009C33.4966 39.3784 34.6173 37.8938 35.6369 37.8371C35.8765 37.8237 36.1302 38.0581 36.461 38.2194C35.9964 38.8965 35.5411 39.3246 34.8014 39.4105C34.2461 39.4751 34.1444 39.8708 34.2535 40.4337C34.8461 40.5678 35.3523 40.2367 35.8467 39.9994C36.9552 39.4678 38.125 39.0622 39.0505 38.1682C39.6493 37.5896 40.0056 37.705 40.588 38.402Z" fill="#3A3A3C"/>
<path d="M77.2714 39.9014C77.1072 39.0069 77.9345 38.5656 78.5657 38.1202C78.6707 38.0557 78.7899 38.0183 78.9129 38.0118C79.036 38.0051 79.1587 38.0297 79.2697 38.0828C79.3808 38.136 79.4766 38.2161 79.5488 38.316C79.6207 38.416 79.6666 38.5323 79.6821 38.6545C79.517 38.923 79.3942 39.2807 78.9214 39.0703L79.107 38.6904C79.0123 38.66 78.8977 38.5896 78.8629 38.6176C78.4979 38.9137 78.1458 39.2252 77.746 39.5706C78.0695 40.0519 78.3691 40.497 78.7206 41.0198C79.1011 40.6393 79.455 40.2857 79.8086 39.9318C80.1505 39.5899 80.4925 39.248 80.8791 38.8617C81.0407 39.1977 81.0857 39.4698 80.7917 39.7474C80.408 40.1092 80.0404 40.488 79.6707 40.8644C79.2537 41.2896 78.6882 41.6405 78.8831 42.384C78.5558 42.7215 78.5845 43.3595 77.9179 43.4305C77.6581 43.458 77.4219 43.7061 77.1709 43.856C77.0563 43.6932 76.713 43.7207 76.9611 43.2429C77.3167 42.5585 78 42.2206 78.4103 41.4824C78.0748 41.0169 77.711 40.5116 77.2714 39.9014Z" fill="#3A3A3C"/>
</g>
<defs>
<clipPath id="clip0_977_328021">
<rect width="106.082" height="64" fill="white"/>
</clipPath>
</defs>
</svg>
