<svg width="29" height="29" viewBox="0 0 29 29" fill="none" xmlns="http://www.w3.org/2000/svg">
<mask id="mask0_17908_7472" style="mask-type:luminance" maskUnits="userSpaceOnUse" x="17" y="13" width="7" height="1">
<path d="M18.1476 13.1245C18.0393 13.1245 17.9502 13.2136 17.9502 13.3233C17.9502 13.433 18.0393 13.5221 18.1476 13.5221H23.0328C23.1425 13.5221 23.2316 13.433 23.2316 13.3233C23.2316 13.2136 23.1425 13.1245 23.0328 13.1245H18.1476Z" fill="white"/>
</mask>
<g mask="url(#mask0_17908_7472)">
<path d="M23.2288 13.1245H17.9488V13.5208H23.2288V13.1245Z" fill="url(#paint0_linear_17908_7472)"/>
</g>
<mask id="mask1_17908_7472" style="mask-type:luminance" maskUnits="userSpaceOnUse" x="17" y="14" width="7" height="1">
<path d="M18.1476 14.4419C18.0393 14.4419 17.9502 14.531 17.9502 14.6407C17.9502 14.749 18.0393 14.8381 18.1476 14.8381H23.0328C23.1425 14.8381 23.2316 14.749 23.2316 14.6407C23.2316 14.531 23.1425 14.4419 23.0328 14.4419H18.1476Z" fill="white"/>
</mask>
<g mask="url(#mask1_17908_7472)">
<path d="M23.2288 14.4419H17.9488V14.8381H23.2288V14.4419Z" fill="url(#paint1_linear_17908_7472)"/>
</g>
<mask id="mask2_17908_7472" style="mask-type:luminance" maskUnits="userSpaceOnUse" x="17" y="15" width="7" height="2">
<path d="M18.1476 15.7612C18.0393 15.7612 17.9502 15.8504 17.9502 15.96C17.9502 16.0697 18.0393 16.1588 18.1476 16.1588H23.0328C23.1425 16.1588 23.2316 16.0697 23.2316 15.96C23.2316 15.8517 23.1425 15.7612 23.0328 15.7612H18.1476Z" fill="white"/>
</mask>
<g mask="url(#mask2_17908_7472)">
<path d="M23.2288 15.7612H17.9488V16.1575H23.2288V15.7612Z" fill="url(#paint2_linear_17908_7472)"/>
</g>
<mask id="mask3_17908_7472" style="mask-type:luminance" maskUnits="userSpaceOnUse" x="17" y="17" width="7" height="1">
<path d="M18.1476 17.0786C18.0393 17.0786 17.9502 17.1677 17.9502 17.2774C17.9502 17.3871 18.0393 17.4762 18.1476 17.4762H23.0328C23.1425 17.4762 23.2316 17.3871 23.2316 17.2774C23.2316 17.1691 23.1425 17.0786 23.0328 17.0786H18.1476Z" fill="white"/>
</mask>
<g mask="url(#mask3_17908_7472)">
<path d="M23.2288 17.0786H17.9488V17.4749H23.2288V17.0786Z" fill="url(#paint3_linear_17908_7472)"/>
</g>
<mask id="mask4_17908_7472" style="mask-type:luminance" maskUnits="userSpaceOnUse" x="17" y="18" width="7" height="1">
<path d="M18.1476 18.3965C18.0393 18.3965 17.9502 18.4856 17.9502 18.5953C17.9502 18.7036 18.0393 18.7941 18.1476 18.7941H23.0328C23.1425 18.7941 23.2316 18.705 23.2316 18.5953C23.2316 18.4856 23.1425 18.3965 23.0328 18.3965H18.1476Z" fill="white"/>
</mask>
<g mask="url(#mask4_17908_7472)">
<path d="M23.2288 18.3965H17.9488V18.7927H23.2288V18.3965Z" fill="url(#paint4_linear_17908_7472)"/>
</g>
<path d="M6.79232 8.03076H21.7481C23.9295 8.03076 25.6899 9.82551 25.6899 12.0069V16.0543C25.6899 20.4528 22.1004 24.0779 17.6664 24.0779H10.8398C6.44133 24.0779 2.81619 20.4528 2.81619 16.0543V12.0069C2.81619 9.82551 4.61093 8.03076 6.79232 8.03076Z" fill="white"/>
<path d="M6.79233 7.64404H21.7481C22.945 7.64404 24.0008 8.13626 24.8097 8.94657C25.5844 9.72123 26.0766 10.8112 26.0766 12.0082V16.0556C26.0766 18.3782 25.1264 20.454 23.6127 22.0034C22.0991 23.517 19.9876 24.4672 17.665 24.4672H10.8384C8.51577 24.4672 6.43996 23.517 4.89064 22.0034C3.37696 20.4554 2.4268 18.3782 2.4268 16.0556V12.0068C2.4268 10.8099 2.91902 9.71986 3.72933 8.9452C4.50536 8.13626 5.59537 7.64404 6.79233 7.64404ZM21.7494 8.41733H6.79233C5.80652 8.41733 4.89201 8.80398 4.25857 9.47306C3.58948 10.1065 3.20284 11.021 3.20284 12.0068V16.0543C3.20284 18.1657 4.04742 20.066 5.45552 21.4385C6.82797 22.8466 8.72829 23.6912 10.8398 23.6912H17.6664C19.7778 23.6912 21.6781 22.8466 23.0862 21.4385C24.4587 20.066 25.3389 18.1657 25.3389 16.0543V12.0068C25.3389 11.021 24.9166 10.1065 24.2832 9.47306C23.6141 8.80535 22.7339 8.41733 21.7494 8.41733Z" fill="#262626"/>
<g opacity="0.4392">
<mask id="mask5_17908_7472" style="mask-type:luminance" maskUnits="userSpaceOnUse" x="7" y="10" width="14" height="4">
<path d="M20.8692 10.7061H7.63691V13.0287H20.8692V10.7061Z" fill="white"/>
</mask>
<g mask="url(#mask5_17908_7472)">
<path d="M17.4209 12.3238H11.0866C9.81967 12.3238 8.69402 11.6904 7.98928 10.7046H7.63691V10.8102C8.2347 12.1127 9.57288 13.0272 11.0852 13.0272H17.4196C18.9675 13.0272 20.2701 12.1127 20.8678 10.8102V10.7046H20.5155C19.8491 11.6904 18.7221 12.3238 17.4209 12.3238Z" fill="#262626"/>
</g>
</g>
<path d="M10.7698 23.2336C6.26584 23.2336 2.60505 19.5742 2.60505 15.0688V15.6324C2.60505 20.1364 6.26447 23.7971 10.7698 23.7971H17.7377C22.2417 23.7971 25.9367 20.1377 25.9367 15.6324V15.0688C25.9367 19.5728 22.2417 23.2336 17.7377 23.2336H10.7698Z" fill="#00A551"/>
<path d="M10.6985 4.26611H17.8076C21.6781 4.26611 24.9166 7.11659 25.5144 10.8117C25.0222 9.19241 23.5085 8.0311 21.7494 8.0311H6.79232C5.03323 8.0311 3.51955 9.19241 2.99169 10.8117C3.62513 7.11659 6.82797 4.26611 10.6985 4.26611Z" fill="white"/>
<path d="M10.6985 3.91357H17.8076C19.8135 3.91357 21.6781 4.61694 23.0862 5.84954C24.5286 7.08077 25.5501 8.80559 25.9011 10.7416C25.9367 10.9527 25.7955 11.1282 25.5844 11.1638C25.3732 11.1995 25.1977 11.0939 25.1621 10.8828C24.9153 10.1794 24.4587 9.54597 23.8595 9.12368C23.2617 8.66574 22.5227 8.42032 21.7481 8.42032H6.79232C5.98339 8.42032 5.24437 8.66711 4.68086 9.12368C4.04742 9.54597 3.58948 10.1794 3.34406 10.9184C3.30841 11.1296 3.09726 11.2351 2.88612 11.1652C2.71062 11.0953 2.60504 10.9184 2.63932 10.7429C2.95604 8.80696 3.97612 7.08351 5.41987 5.85091C6.86225 4.61694 8.69264 3.91357 10.6985 3.91357ZM17.8076 4.65259H10.6985C8.86814 4.65259 7.21462 5.32167 5.91209 6.41168C5.20873 7.00947 4.64521 7.71421 4.18727 8.52315L4.22292 8.4875C4.92628 7.95963 5.84217 7.64291 6.79232 7.64291H21.7481C22.6982 7.64291 23.5785 7.95963 24.2818 8.4875L24.3175 8.52315C23.8952 7.71421 23.2974 7.00947 22.5927 6.41168C21.3272 5.32167 19.638 4.65259 17.8076 4.65259Z" fill="#262626"/>
<path d="M10.8041 4.26611H17.702C16.9987 5.42742 15.6961 6.20208 14.2537 6.20208C12.81 6.20071 11.5431 5.42742 10.8041 4.26611Z" fill="#00A551"/>
<path d="M10.8041 3.91357H17.702C17.9132 3.91357 18.0887 4.0548 18.0887 4.26594C18.0887 4.37152 18.053 4.44144 18.0187 4.51274C17.5964 5.11053 17.0686 5.63839 16.3995 6.02641C15.766 6.37878 15.027 6.58992 14.2524 6.58992C13.4777 6.58992 12.7387 6.37878 12.1053 6.02641C11.4362 5.63976 10.9083 5.1119 10.486 4.47846C10.3804 4.30296 10.4504 4.05617 10.6272 3.95059C10.6643 3.91357 10.7342 3.91357 10.8041 3.91357ZM16.9274 4.65259H11.5788C11.8256 4.93366 12.1423 5.18045 12.459 5.35595C12.9869 5.63702 13.6203 5.81389 14.2537 5.81389C14.9228 5.81389 15.5206 5.63839 16.0485 5.35595C16.3638 5.18045 16.6806 4.93366 16.9274 4.65259Z" fill="#262626"/>
<path d="M7.28454 10.8813H7.63691C8.2347 12.1839 9.57287 13.0984 11.0852 13.0984H17.4196C18.9675 13.0984 20.27 12.1839 20.8678 10.8813H21.2202C22.6283 10.8813 23.7896 12.0427 23.7896 13.4508V16.0901C23.7896 18.9406 21.467 21.2632 18.5809 21.2632H9.92387C7.07339 21.2632 4.71513 18.9406 4.71513 16.0901V13.4508C4.7165 12.0427 5.87781 10.8813 7.28454 10.8813Z" fill="#262626"/>
<path d="M7.28454 10.4946H7.63691C7.81241 10.4946 7.95363 10.6002 7.98928 10.7414C8.27035 11.3392 8.69264 11.8328 9.25616 12.1838C9.78402 12.5362 10.4175 12.7473 11.0866 12.7473H17.4209C18.09 12.7473 18.7235 12.5362 19.2856 12.1838C19.8135 11.8314 20.2714 11.3392 20.5525 10.7414C20.5881 10.6002 20.728 10.4946 20.8692 10.4946H21.2216C22.0305 10.4946 22.7695 10.847 23.2974 11.3749C23.8253 11.9027 24.1776 12.6417 24.1776 13.4507V16.09C24.1776 17.6037 23.5442 19.0104 22.5241 20.0319C21.5383 21.0177 20.1316 21.6511 18.5823 21.6511H9.92525C8.3773 21.6511 7.00484 21.0177 5.98339 20.0319C4.96331 19.0118 4.36414 17.6037 4.36414 16.09V13.4507C4.36414 12.6417 4.68086 11.9027 5.20873 11.3749C5.20873 11.3749 5.24438 11.3749 5.24438 11.3392C5.77224 10.8113 6.51126 10.4946 7.28454 10.4946ZM7.39012 11.2679H7.28454C6.68675 11.2679 6.15889 11.5147 5.77087 11.9014H5.73522C5.34858 12.288 5.10178 12.8515 5.10178 13.4493V16.0886C5.10178 17.3912 5.62965 18.6224 6.50988 19.467C7.39012 20.3472 8.5857 20.9094 9.92388 20.9094H18.5809C19.9177 20.9094 21.1146 20.3458 21.9949 19.467C22.8751 18.6224 23.403 17.3912 23.403 16.0886V13.4507C23.403 12.8529 23.1562 12.2894 22.7695 11.9027C22.3829 11.5161 21.8194 11.2693 21.2216 11.2693H21.116C20.7636 11.9027 20.2714 12.4306 19.6736 12.8172C19.0402 13.2395 18.2655 13.4863 17.4209 13.4863H11.0866C10.2776 13.4863 9.50295 13.2395 8.83387 12.8172C8.2347 12.4292 7.74249 11.9014 7.39012 11.2679Z" fill="#262626"/>
<path d="M9.60716 21.369C9.60716 21.1578 9.81831 21.0166 9.99381 21.0166C10.205 21.0522 10.3805 21.2277 10.3462 21.4389C10.3105 21.8255 10.2762 22.2136 10.3105 22.6002C10.3462 22.9868 10.4161 23.3749 10.5217 23.7615C10.5573 23.9727 10.4517 24.1838 10.2406 24.2194C10.0295 24.2894 9.81831 24.1495 9.78266 23.9384C9.67709 23.5161 9.60716 23.0938 9.57151 22.6715C9.53724 22.2478 9.53724 21.7913 9.60716 21.369Z" fill="#262626"/>
<path d="M18.2998 21.4389C18.2642 21.2277 18.4054 21.0522 18.6165 21.0166C18.8277 21.0166 19.0032 21.1578 19.0388 21.369C19.0745 21.7913 19.1087 22.2492 19.0745 22.6715C19.0388 23.0938 18.9689 23.5161 18.8633 23.9384C18.7934 24.1495 18.5822 24.2907 18.4054 24.2194C18.1942 24.1838 18.053 23.9727 18.1243 23.7615C18.2299 23.3749 18.2998 22.9868 18.2998 22.6002C18.3355 22.2136 18.3355 21.8255 18.2998 21.4389Z" fill="#262626"/>
<path d="M3.7307 19.7141C1.79474 19.045 0.388008 17.2159 0.388008 15.0688C0.388008 13.1685 1.47939 11.515 3.02734 10.6704C2.88612 11.0927 2.81619 11.5506 2.81619 12.0072V16.0546C2.81619 17.3914 3.13291 18.624 3.7307 19.7141Z" fill="white"/>
<path d="M3.55521 20.066C2.53513 19.7137 1.61925 19.0103 0.985807 18.1301C0.388016 17.2855 0 16.1941 0 15.0684C0 14.0484 0.281071 13.1325 0.77466 12.3235C1.26688 11.479 2.00589 10.8099 2.88612 10.3533C3.06162 10.2477 3.27277 10.3176 3.37834 10.5288C3.41399 10.5987 3.41399 10.7043 3.41399 10.8099C3.34407 10.9854 3.27277 11.1965 3.23849 11.4077C3.20284 11.5832 3.20284 11.7943 3.20284 12.0054V16.0529C3.20284 16.6863 3.27277 17.2841 3.41399 17.8476C3.55521 18.4454 3.76636 19.0089 4.04743 19.5368C4.153 19.7479 4.08308 19.9591 3.87193 20.0647C3.76636 20.1017 3.66079 20.1017 3.55521 20.066ZM1.61925 17.7078C1.97161 18.2 2.42818 18.6223 2.95605 18.9747C2.85048 18.6579 2.7449 18.3412 2.67498 18.0245C2.53376 17.3911 2.42818 16.722 2.42818 16.0542V12.0068C2.42818 11.8313 2.46383 11.6545 2.46383 11.5146C2.04154 11.8313 1.68917 12.2536 1.4081 12.7116C1.02145 13.3806 0.77466 14.1896 0.77466 15.0698C0.77466 16.0542 1.09138 16.9688 1.61925 17.7078Z" fill="#262626"/>
<path d="M6.79233 7.64404H21.7481C22.945 7.64404 24.0008 8.13626 24.8097 8.94657C25.5844 9.72123 26.0766 10.8112 26.0766 12.0082V16.0556C26.0766 18.3782 25.1264 20.454 23.6127 22.0034C22.0991 23.517 19.9876 24.4672 17.665 24.4672H10.8384C8.51577 24.4672 6.43996 23.517 4.89064 22.0034C3.37696 20.4554 2.4268 18.3782 2.4268 16.0556V12.0068C2.4268 10.8099 2.91902 9.71986 3.72933 8.9452C4.50536 8.13626 5.59537 7.64404 6.79233 7.64404ZM21.7494 8.41733H6.79233C5.80652 8.41733 4.89201 8.80398 4.25857 9.47306C3.58948 10.1065 3.20284 11.021 3.20284 12.0068V16.0543C3.20284 18.1657 4.04742 20.066 5.45552 21.4385C6.82797 22.8466 8.72829 23.6912 10.8398 23.6912H17.6664C19.7778 23.6912 21.6781 22.8466 23.0862 21.4385C24.4587 20.066 25.3389 18.1657 25.3389 16.0543V12.0068C25.3389 11.021 24.9166 10.1065 24.2832 9.47306C23.6141 8.80535 22.7339 8.41733 21.7494 8.41733Z" fill="#262626"/>
<g opacity="0.4392">
<mask id="mask6_17908_7472" style="mask-type:luminance" maskUnits="userSpaceOnUse" x="0" y="13" width="4" height="7">
<path d="M3.27414 13.2397H0.442856V19.5741H3.27414V13.2397Z" fill="white"/>
</mask>
<g mask="url(#mask6_17908_7472)">
<path d="M2.8162 15.4211C2.78055 16.4769 2.92177 17.8493 3.27414 19.5741C0.776029 18.2017 -0.0685567 16.1259 0.740381 13.2397C1.09138 14.7178 1.79474 15.4568 2.8162 15.4211Z" fill="#262626"/>
</g>
</g>
<path d="M3.27276 19.433C3.23711 18.8352 3.20283 18.5185 3.20283 18.5185C1.44374 17.4627 0.669076 15.8435 0.880222 13.6978C0.105562 16.4769 0.91587 18.3773 3.27276 19.433Z" fill="#00A551"/>
<path d="M3.55521 20.066C2.53513 19.7137 1.61925 19.0103 0.985807 18.1301C0.388016 17.2855 0 16.1941 0 15.0684C0 14.0484 0.281071 13.1325 0.77466 12.3235C1.26688 11.479 2.00589 10.8099 2.88612 10.3533C3.06162 10.2477 3.27277 10.3176 3.37834 10.5288C3.41399 10.5987 3.41399 10.7043 3.41399 10.8099C3.34407 10.9854 3.27277 11.1965 3.23849 11.4077C3.20284 11.5832 3.20284 11.7943 3.20284 12.0054V16.0529C3.20284 16.6863 3.27277 17.2841 3.41399 17.8476C3.55521 18.4454 3.76636 19.0089 4.04743 19.5368C4.153 19.7479 4.08308 19.9591 3.87193 20.0647C3.76636 20.1017 3.66079 20.1017 3.55521 20.066ZM1.61925 17.7078C1.97161 18.2 2.42818 18.6223 2.95605 18.9747C2.85048 18.6579 2.7449 18.3412 2.67498 18.0245C2.53376 17.3911 2.42818 16.722 2.42818 16.0542V12.0068C2.42818 11.8313 2.46383 11.6545 2.46383 11.5146C2.04154 11.8313 1.68917 12.2536 1.4081 12.7116C1.02145 13.3806 0.77466 14.1896 0.77466 15.0698C0.77466 16.0542 1.09138 16.9688 1.61925 17.7078Z" fill="#262626"/>
<path d="M24.8111 19.6798C26.747 19.0107 28.1195 17.1817 28.1195 14.9989C28.1195 13.0986 27.0638 11.4451 25.4802 10.6348C25.6214 11.0571 25.6913 11.4794 25.6913 11.9373V16.019C25.6899 17.3215 25.3732 18.5884 24.8111 19.6798Z" fill="white"/>
<path d="M25.5501 18.905C26.0779 18.5883 26.5359 18.166 26.9225 17.6382C27.4504 16.8991 27.7315 15.9846 27.7315 14.9988C27.7315 14.1542 27.5203 13.3453 27.098 12.6406C26.817 12.1826 26.4646 11.796 26.0423 11.4436C26.0779 11.6191 26.0779 11.796 26.0779 11.9358V16.0175C26.0779 16.6866 26.008 17.3543 25.8311 17.9878C25.7612 18.3072 25.6556 18.624 25.5501 18.905ZM27.5203 18.0961C26.8869 18.9763 26.0066 19.644 24.9509 20.0321C24.8453 20.0677 24.7398 20.0677 24.6342 20.0321C24.4587 19.9265 24.3874 19.6797 24.4587 19.5042C24.7398 18.9763 24.9509 18.4128 25.0921 17.815C25.2334 17.2172 25.3389 16.6181 25.3389 16.0203V11.9372C25.3389 11.7261 25.3033 11.5506 25.269 11.3394C25.2334 11.1639 25.1991 10.9528 25.1278 10.7759C25.0921 10.6703 25.0921 10.5647 25.1278 10.4592C25.2334 10.2837 25.4802 10.2124 25.6556 10.318C26.5002 10.7402 27.2392 11.4436 27.7315 12.2539C28.2237 13.0629 28.5061 14.013 28.5061 14.9988C28.5061 16.1601 28.1538 17.2159 27.5203 18.0961Z" fill="#262626"/>
<g opacity="0.4392">
<mask id="mask7_17908_7472" style="mask-type:luminance" maskUnits="userSpaceOnUse" x="25" y="13" width="4" height="7">
<path d="M28.0633 13.2041H25.2334V19.5028H28.0633V13.2041Z" fill="white"/>
</mask>
<g mask="url(#mask7_17908_7472)">
<path d="M25.6899 15.3855C25.7599 16.4056 25.5844 17.778 25.232 19.5028C27.7301 18.166 28.5747 16.0546 27.7657 13.2041C27.4147 14.6821 26.7114 15.4211 25.6899 15.3855Z" fill="#262626"/>
</g>
</g>
<path d="M25.2676 19.3631C25.3033 18.7653 25.3033 18.4828 25.3033 18.4828C27.0624 17.4271 27.837 15.8079 27.6615 13.6621C28.4006 16.4413 27.6259 18.3416 25.2676 19.3631Z" fill="#00A551"/>
<path d="M25.5501 18.905C26.0779 18.5883 26.5359 18.166 26.9225 17.6382C27.4504 16.8991 27.7315 15.9846 27.7315 14.9988C27.7315 14.1542 27.5203 13.3453 27.098 12.6406C26.817 12.1826 26.4646 11.796 26.0423 11.4436C26.0779 11.6191 26.0779 11.796 26.0779 11.9358V16.0175C26.0779 16.6866 26.008 17.3543 25.8311 17.9878C25.7612 18.3072 25.6556 18.624 25.5501 18.905ZM27.5203 18.0961C26.8869 18.9763 26.0066 19.644 24.9509 20.0321C24.8453 20.0677 24.7398 20.0677 24.6342 20.0321C24.4587 19.9265 24.3874 19.6797 24.4587 19.5042C24.7398 18.9763 24.9509 18.4128 25.0921 17.815C25.2334 17.2172 25.3389 16.6181 25.3389 16.0203V11.9372C25.3389 11.7261 25.3033 11.5506 25.269 11.3394C25.2334 11.1639 25.1991 10.9528 25.1278 10.7759C25.0921 10.6703 25.0921 10.5647 25.1278 10.4592C25.2334 10.2837 25.4802 10.2124 25.6556 10.318C26.5002 10.7402 27.2392 11.4436 27.7315 12.2539C28.2237 13.0629 28.5061 14.013 28.5061 14.9988C28.5061 16.1601 28.1538 17.2159 27.5203 18.0961Z" fill="#262626"/>
<path d="M13.937 14.5765C13.937 14.4353 14.0782 14.2954 14.2181 14.2954C14.3936 14.2954 14.4992 14.4366 14.4992 14.5765V18.447C14.4992 18.5883 14.3936 18.7281 14.2181 18.7281C14.0769 18.7281 13.937 18.5869 13.937 18.447V14.5765Z" fill="#00A551"/>
<path d="M15.415 15.1043C15.415 14.9631 15.5563 14.8232 15.6961 14.8232C15.8716 14.8232 15.9772 14.9645 15.9772 15.1043V17.9191C15.9772 18.0946 15.8716 18.2002 15.6961 18.2002C15.5549 18.2002 15.415 18.0946 15.415 17.9191V15.1043Z" fill="#00A551"/>
<path d="M16.8931 14.7518C16.8931 14.6106 17.0343 14.4707 17.1742 14.4707C17.3497 14.4707 17.4552 14.6119 17.4552 14.7518V18.2713C17.4552 18.4468 17.3497 18.5524 17.1742 18.5524C17.0329 18.5524 16.8931 18.4468 16.8931 18.2713V14.7518Z" fill="#00A551"/>
<path d="M18.2655 15.8079C18.2655 15.6324 18.4068 15.5269 18.5466 15.5269C18.7221 15.5269 18.8277 15.6324 18.8277 15.8079V17.2503C18.8277 17.3915 18.7221 17.5314 18.5466 17.5314C18.4054 17.5314 18.2655 17.3902 18.2655 17.2503V15.8079Z" fill="#00A551"/>
<path d="M12.5289 15.1043C12.5289 14.9631 12.6702 14.8232 12.81 14.8232C12.9855 14.8232 13.0911 14.9645 13.0911 15.1043V17.9191C13.0911 18.0946 12.9855 18.2002 12.81 18.2002C12.6688 18.2002 12.5289 18.0946 12.5289 17.9191V15.1043Z" fill="#00A551"/>
<path d="M11.0509 14.7518C11.0509 14.6106 11.1921 14.4707 11.332 14.4707C11.5075 14.4707 11.613 14.6119 11.613 14.7518V18.2713C11.613 18.4468 11.5075 18.5524 11.332 18.5524C11.1908 18.5524 11.0509 18.4468 11.0509 18.2713V14.7518Z" fill="#00A551"/>
<path d="M9.67845 15.8079C9.67845 15.6324 9.81967 15.5269 9.95952 15.5269C10.135 15.5269 10.2406 15.6324 10.2406 15.8079V17.2503C10.2406 17.3915 10.135 17.5314 9.95952 17.5314C9.8183 17.5314 9.67845 17.3902 9.67845 17.2503V15.8079Z" fill="#00A551"/>
<defs>
<linearGradient id="paint0_linear_17908_7472" x1="20.5933" y1="13.124" x2="20.5933" y2="13.5205" gradientUnits="userSpaceOnUse">
<stop stop-color="#F1F4F7"/>
<stop offset="1" stop-color="#D8E2EB"/>
</linearGradient>
<linearGradient id="paint1_linear_17908_7472" x1="20.5933" y1="14.442" x2="20.5933" y2="14.8383" gradientUnits="userSpaceOnUse">
<stop stop-color="#F1F4F7"/>
<stop offset="1" stop-color="#D8E2EB"/>
</linearGradient>
<linearGradient id="paint2_linear_17908_7472" x1="20.5933" y1="15.7603" x2="20.5933" y2="16.1569" gradientUnits="userSpaceOnUse">
<stop stop-color="#F1F4F7"/>
<stop offset="1" stop-color="#D8E2EB"/>
</linearGradient>
<linearGradient id="paint3_linear_17908_7472" x1="20.6035" y1="17.0766" x2="20.6035" y2="17.4733" gradientUnits="userSpaceOnUse">
<stop stop-color="#F1F4F7"/>
<stop offset="1" stop-color="#D8E2EB"/>
</linearGradient>
<linearGradient id="paint4_linear_17908_7472" x1="20.6035" y1="18.3951" x2="20.6035" y2="18.7916" gradientUnits="userSpaceOnUse">
<stop stop-color="#F1F4F7"/>
<stop offset="1" stop-color="#D8E2EB"/>
</linearGradient>
</defs>
</svg>
